<svg id="Layer_1" data-name="Layer 1" xmlns="http://www.w3.org/2000/svg" viewBox="0 0 1255.61 384.39"><defs><style>.cls-1{fill:#1963d1;}.cls-2{fill:#fff;}</style></defs><title>Untitled-1</title><path class="cls-1" d="M57.18,187.76h167q44.91,0,67.5,11.82A100.47,100.47,0,0,1,329,233.35q14.7,21.94,14.71,53.46,0,63.88-64.62,85.26,37.29,9,55.95,35.79t18.65,58.33q0,43.13-30.47,74.54t-99,31.42h-167ZM141,255.63v84.2h63.56q34.92,0,44-14.79t9.06-28.3q0-14.64-7.48-25.2T233.68,258.3q-8.93-2.67-35.19-2.67Zm0,152.63v92.65h64.47q33,0,46.66-12.39t13.63-34.64a44.57,44.57,0,0,0-13.11-32.11q-13.11-13.51-43.51-13.51Z" transform="translate(-57.18 -187.76)"/><path class="cls-2" d="M647.67,187.76v76H558.89V572.15h-85.1V263.79h-89.3v-76Z" transform="translate(-57.18 -187.76)"/><path class="cls-2" d="M952.65,261H781.92v78.85H916.14V412.2H781.92v83.92H952.65v76H696.56V187.76H952.65Z" transform="translate(-57.18 -187.76)"/><path class="cls-2" d="M1098.46,187.76v180.6l112.4-180.6h80.39L1205.14,325l107.65,247.15H1220.3l-71.54-166.92L1098.46,484v88.14H1016V187.76Z" transform="translate(-57.18 -187.76)"/><path d="M1305.38,441.08l-2,5.92H1302l-2-5.92h1.81l1.15,3.75,1.16-3.75Z" transform="translate(-57.18 -187.76)"/></svg>